HIERARCHY
ROOT Hips
{
	OFFSET 62.890800 8.863803 43.568401
	CHANNELS 6 Xposition Yposition Zposition Zrotation Xrotation Yrotation
	JOINT Chest
	{
		OFFSET -0.160400 1.630001 7.806301
		CHANNELS 6 Xposition Yposition Zposition Zrotation Xrotation Yrotation
		JOINT Chest2
		{
			OFFSET 0.000000 0.000000 3.197998
			CHANNELS 6 Xposition Yposition Zposition Zrotation Xrotation Yrotation
			JOINT Neck
			{
				OFFSET 0.000000 0.000001 7.440701
				CHANNELS 6 Xposition Yposition Zposition Zrotation Xrotation Yrotation
				JOINT Head
				{
					OFFSET 0.000000 0.000000 2.173901
					CHANNELS 6 Xposition Yposition Zposition Zrotation Xrotation Yrotation
					End Site
					{
						OFFSET 0.000000 0.000001 10.420303
					}
				}
			}
			JOINT LeftCollar
			{
				OFFSET 2.426399 -1.880099 4.759399
				CHANNELS 6 Xposition Yposition Zposition Zrotation Xrotation Yrotation
				JOINT LeftShoulder
				{
					OFFSET 4.420197 0.000000 0.000000
					CHANNELS 6 Xposition Yposition Zposition Zrotation Xrotation Yrotation
					JOINT LeftElbow
					{
						OFFSET 0.000000 -0.000001 -10.347099
						CHANNELS 6 Xposition Yposition Zposition Zrotation Xrotation Yrotation
						JOINT LeftWrist
						{
							OFFSET 0.000000 -0.000001 -12.496300
							CHANNELS 6 Xposition Yposition Zposition Zrotation Xrotation Yrotation
							End Site
							{
								OFFSET 0.000000 0.000000 -2.173901
							}
						}
					}
				}
			}
			JOINT RightCollar
			{
				OFFSET -2.781502 -1.903799 5.072601
				CHANNELS 6 Xposition Yposition Zposition Zrotation Xrotation Yrotation
				JOINT RightShoulder
				{
					OFFSET -4.012100 0.000000 0.000000
					CHANNELS 6 Xposition Yposition Zposition Zrotation Xrotation Yrotation
					JOINT RightElbow
					{
						OFFSET 0.000000 -0.000001 -10.346600
						CHANNELS 6 Xposition Yposition Zposition Zrotation Xrotation Yrotation
						JOINT RightWrist
						{
							OFFSET 0.000000 -0.000001 -12.562599
							CHANNELS 6 Xposition Yposition Zposition Zrotation Xrotation Yrotation
							End Site
							{
								OFFSET 0.000000 0.000000 -2.173901
							}
						}
					}
				}
			}
		}
	}
	JOINT LeftHip
	{
		OFFSET 2.047997 -0.047200 -2.693199
		CHANNELS 6 Xposition Yposition Zposition Zrotation Xrotation Yrotation
		JOINT LeftKnee
		{
			OFFSET 0.000000 -0.000001 -18.824400
			CHANNELS 6 Xposition Yposition Zposition Zrotation Xrotation Yrotation
			JOINT LeftAnkle
			{
				OFFSET 0.000000 -0.000002 -19.078199
				CHANNELS 6 Xposition Yposition Zposition Zrotation Xrotation Yrotation
				End Site
				{
					OFFSET 0.000000 -9.342100 0.000001
				}
			}
		}
	}
	JOINT RightHip
	{
		OFFSET -2.129898 -0.022300 -2.538300
		CHANNELS 6 Xposition Yposition Zposition Zrotation Xrotation Yrotation
		JOINT RightKnee
		{
			OFFSET 0.000000 -0.000001 -18.644600
			CHANNELS 6 Xposition Yposition Zposition Zrotation Xrotation Yrotation
			JOINT RightAnkle
			{
				OFFSET 0.000000 -0.000002 -18.801399
				CHANNELS 6 Xposition Yposition Zposition Zrotation Xrotation Yrotation
				End Site
				{
					OFFSET 0.000000 -8.914600 0.000001
				}
			}
		}
	}
}
MOTION
Frames: 4
Frame Time: 0.041667
25.785892 -3.185611 25.766911 318.933989 69.154921 31.632307 -0.160396 1.629999 7.806305 9.968600 25.985497 8.719674 0.000002 -0.000001 3.198001 -5.660156 -11.177876 -0.136792 -0.000007 -0.000001 7.440706 0.531962 -15.785300 7.022223 -0.000004 0.000000 2.173905 -2.463404 -7.404947 -2.327803 2.426401 -1.880102 4.759398 0.840610 9.010164 17.477844 4.420192 0.000009 0.000003 -42.707909 1.586340 -130.132849 -0.000004 -0.000001 -10.347095 17.788847 -29.737780 5.312330 -0.000001 0.000001 -12.496294 -280.731184 168.468870 133.257824 -2.781507 -1.903801 5.072606 32.101671 35.549772 -3.966264 -4.012105 -0.000000 -0.000000 84.953162 -28.735992 158.610858 -0.000001 -0.000006 -10.346598 -84.497438 -25.951152 -51.064519 0.000000 -0.000000 -12.562597 654.105469 -0.180056 -37.618766 2.047995 -0.047199 -2.693208 131.400818 -22.071961 132.788426 0.000002 0.000000 -18.824400 4.156274 198.929246 -68.478432 -0.000001 -0.000002 -19.078203 59.206614 -26.490091 40.596882 -2.129898 -0.022301 -2.538300 -510.064430 2.636156 -121.072562 0.000000 0.000001 -18.644598 293.713106 127.935700 79.437361 0.000000 -0.000002 -18.801399 -30.972620 1.542044 -41.069316
25.519596 -3.328710 25.853909 318.068249 69.731846 32.217323 -0.160393 1.630000 7.806305 9.631812 26.181010 9.116357 -0.000002 0.000001 3.198004 -5.583120 -11.153916 -0.131099 -0.000003 0.000005 7.440703 1.041084 -15.813403 7.340012 -0.000006 -0.000003 2.173905 -2.427387 -7.425654 -2.258402 2.426399 -1.880095 4.759398 1.114799 7.867538 17.212019 4.420199 -0.000003 -0.000004 -42.909673 2.784673 -128.911488 -0.000002 -0.000005 -10.347095 16.845639 -28.753812 4.689245 0.000000 0.000003 -12.496299 -280.147285 168.529986 133.402078 -2.781500 -1.903797 5.072604 32.455748 35.694418 -3.916329 -4.012099 0.000008 -0.000002 84.481900 -28.922491 158.109426 0.000002 0.000000 -10.346592 -83.549982 -25.970324 -50.274874 -0.000000 -0.000006 -12.562604 653.992362 -0.183334 -37.820216 2.047997 -0.047197 -2.693207 131.601571 -22.537476 132.910973 -0.000002 -0.000003 -18.824404 3.515464 198.052837 -68.914491 0.000001 -0.000002 -19.078197 58.461939 -26.146102 40.118762 -2.129897 -0.022298 -2.538303 -509.698550 2.543943 -120.705166 -0.000001 0.000005 -18.644602 292.615959 127.813890 79.241000 -0.000002 -0.000003 -18.801399 -31.115272 0.128817 -40.330136
25.254402 -3.474112 25.919708 316.847449 70.166622 33.219492 -0.160397 1.629999 7.806307 9.518114 26.314566 9.384057 0.000004 0.000001 3.197998 -5.430924 -11.126804 -0.110939 -0.000008 -0.000001 7.440703 1.518237 -15.823212 7.668736 -0.000005 0.000005 2.173907 -2.418609 -7.437656 -2.122974 2.426394 -1.880100 4.759396 1.004847 7.839033 17.286177 4.420187 0.000000 -0.000003 -43.118957 3.375182 -128.550540 -0.000002 -0.000001 -10.347090 15.453663 -27.875156 3.875295 -0.000003 0.000002 -12.496297 -279.208844 168.629311 133.569499 -2.781504 -1.903800 5.072604 32.877963 35.728931 -4.186699 -4.012098 0.000001 0.000003 83.715580 -28.861166 157.540239 0.000000 0.000006 -10.346594 -82.997966 -25.661562 -49.688848 0.000000 -0.000002 -12.562601 654.136615 -0.137436 -37.927590 2.047996 -0.047194 -2.693205 131.931538 -22.955614 133.060213 -0.000000 0.000001 -18.824402 2.631241 196.674792 -69.228031 -0.000003 -0.000004 -19.078201 56.982882 -25.844814 39.357483 -2.129895 -0.022299 -2.538302 -509.276772 2.485170 -120.484974 -0.000006 0.000003 -18.644598 291.903215 128.325458 79.053224 -0.000004 -0.000005 -18.801399 -31.612127 -1.313624 -40.808662
24.993599 -3.619309 25.965111 315.954989 70.564959 33.866800 -0.160390 1.630001 7.806307 9.320419 26.449206 9.633951 0.000008 0.000003 3.198007 -5.240284 -11.011751 -0.087650 -0.000007 -0.000002 7.440704 1.991293 -15.909280 8.007385 -0.000003 -0.000002 2.173902 -2.419293 -7.423850 -2.008447 2.426404 -1.880099 4.759398 0.590269 7.831557 17.645930 4.420188 0.000005 -0.000005 -43.056440 3.921089 -128.362081 -0.000002 0.000003 -10.347091 14.235003 -27.115620 3.249945 0.000002 0.000004 -12.496291 -278.461157 168.699512 133.772506 -2.781501 -1.903799 5.072601 33.560131 35.645347 -4.853923 -4.012101 0.000000 -0.000001 82.536593 -28.544218 156.999725 0.000000 -0.000001 -10.346594 -82.897432 -25.056184 -49.378043 0.000000 -0.000003 -12.562596 655.050877 -0.328571 -38.100807 2.047996 -0.047197 -2.693201 132.098140 -23.235615 133.120141 0.000001 -0.000004 -18.824398 1.642744 195.053482 -69.394059 -0.000001 -0.000007 -19.078199 55.348827 -25.425931 38.480295 -2.129892 -0.022297 -2.538295 -509.041650 2.387731 -120.497009 -0.000004 0.000004 -18.644604 291.738471 128.900300 78.619603 -0.000002 -0.000003 -18.801399 -31.915684 -2.267775 -40.770335
